<svg id="svg" version="1.1" xmlns="http://www.w3.org/2000/svg" xmlns:xlink="http://www.w3.org/1999/xlink" width="400" height="400" viewBox="0, 0, 400,400"><g id="svgg"><path id="path0" d="M0.000 200.000 L 0.000 400.000 200.000 400.000 L 400.000 400.000 400.000 200.000 L 400.000 0.000 200.000 0.000 L 0.000 0.000 0.000 200.000 M282.400 29.668 C 298.113 34.428,303.416 39.360,315.571 60.514 C 321.936 71.593,325.127 77.133,342.857 107.900 C 350.179 120.605,360.331 138.231,367.797 151.200 C 370.393 155.710,375.066 163.810,378.182 169.200 C 386.723 183.976,388.000 187.867,388.000 199.120 C 388.000 209.124,386.513 214.411,381.059 223.800 C 378.494 228.214,375.348 233.659,363.608 254.000 C 361.259 258.070,356.939 265.540,354.007 270.600 C 348.674 279.807,342.025 291.310,334.008 305.200 C 331.659 309.270,327.339 316.740,324.407 321.800 C 321.476 326.860,316.748 335.049,313.900 339.999 C 303.570 357.952,297.049 363.751,282.555 367.875 L 278.600 369.000 199.000 369.000 C 113.352 369.000,118.639 369.124,111.499 366.954 C 102.187 364.126,92.987 356.673,87.572 347.572 C 86.861 346.378,83.636 340.810,80.405 335.200 C 77.175 329.590,71.056 318.970,66.809 311.600 C 62.562 304.230,56.081 292.980,52.407 286.600 C 48.733 280.220,42.305 269.060,38.121 261.800 C 33.938 254.540,28.036 244.280,25.006 239.000 C 21.976 233.720,18.248 227.285,16.723 224.700 C 10.888 214.812,8.814 207.966,8.814 198.600 C 8.814 187.985,10.611 182.944,20.364 166.200 C 25.361 157.620,29.840 149.883,40.392 131.600 C 42.741 127.530,47.061 120.060,49.991 115.000 C 52.921 109.940,57.968 101.210,61.207 95.600 C 64.446 89.990,69.125 81.890,71.606 77.600 C 74.086 73.310,78.185 66.200,80.715 61.800 C 89.282 46.902,89.899 45.982,94.502 41.260 C 101.202 34.388,109.888 30.075,119.600 28.797 C 120.810 28.638,157.170 28.537,200.400 28.573 L 279.000 28.638 282.400 29.668 M189.200 200.000 C 189.200 211.246,189.325 215.600,189.648 215.600 C 189.894 215.600,192.189 214.371,194.748 212.870 C 197.307 211.368,203.225 207.924,207.900 205.217 C 212.575 202.509,216.400 200.161,216.400 200.000 C 216.400 199.839,212.575 197.491,207.900 194.783 C 203.225 192.076,197.307 188.632,194.748 187.130 C 192.189 185.629,189.894 184.400,189.648 184.400 C 189.325 184.400,189.200 188.754,189.200 200.000 " stroke="none" fill="#fcfbfb" fill-rule="evenodd"></path><path id="path1" d="M116.694 29.995 C 103.072 32.867,94.158 39.877,85.914 54.200 C 84.268 57.060,80.578 63.450,77.715 68.400 C 71.678 78.837,70.656 80.605,59.681 99.600 C 55.168 107.410,50.128 116.140,48.480 119.000 C 46.832 121.860,43.916 126.900,42.000 130.200 C 40.084 133.500,37.167 138.540,35.518 141.400 C 33.870 144.260,30.126 150.740,27.199 155.800 C 12.384 181.411,12.701 180.801,10.920 187.124 C 8.310 196.386,10.157 213.393,14.425 219.400 C 14.581 219.620,19.785 228.620,25.990 239.400 C 32.195 250.180,38.319 260.800,39.600 263.000 C 40.881 265.200,47.001 275.820,53.200 286.600 C 59.399 297.380,65.519 308.000,66.800 310.200 C 68.080 312.400,73.579 321.940,79.019 331.400 C 89.934 350.379,91.449 352.659,95.918 356.833 C 101.434 361.984,107.031 365.128,114.200 367.100 L 118.200 368.200 197.000 368.315 C 252.845 368.396,276.557 368.301,278.400 367.990 C 292.363 365.633,302.498 358.303,310.200 344.991 C 317.516 332.347,323.281 322.376,325.921 317.800 C 327.571 314.940,331.523 308.100,334.705 302.600 C 337.886 297.100,342.206 289.630,344.303 286.000 C 346.401 282.370,349.423 277.150,351.018 274.400 C 354.147 269.008,363.618 252.627,368.479 244.200 C 370.129 241.340,373.880 234.860,376.815 229.800 C 386.410 213.258,387.949 208.583,387.477 197.400 C 386.991 185.869,386.846 185.534,369.200 155.000 C 363.960 145.934,358.413 136.307,349.609 121.000 C 344.848 112.723,336.204 97.720,331.287 89.200 C 330.081 87.110,327.022 81.800,324.489 77.400 C 319.139 68.106,313.205 57.815,310.082 52.409 C 302.743 39.710,292.716 32.335,279.300 29.768 C 274.118 28.777,121.463 28.990,116.694 29.995 M197.281 187.916 C 201.746 190.509,208.049 194.154,211.287 196.016 C 214.749 198.006,217.174 199.647,217.174 200.000 C 217.174 200.353,214.749 201.994,211.287 203.984 C 208.049 205.846,201.746 209.491,197.281 212.084 C 192.816 214.678,189.081 216.800,188.981 216.800 C 188.881 216.800,188.800 209.240,188.800 200.000 C 188.800 190.760,188.881 183.200,188.981 183.200 C 189.081 183.200,192.816 185.322,197.281 187.916 " stroke="none" fill="#fc1212" fill-rule="evenodd"></path><path id="path2" d="M119.023 29.147 C 118.375 29.286,154.185 29.400,198.600 29.400 C 243.015 29.400,278.825 29.286,278.177 29.147 C 276.639 28.817,120.561 28.817,119.023 29.147 M115.000 30.019 C 114.442 30.271,114.685 30.307,115.800 30.138 C 116.680 30.004,117.475 29.828,117.567 29.747 C 117.910 29.444,115.768 29.671,115.000 30.019 M279.633 29.743 C 279.725 29.821,280.430 30.001,281.200 30.142 C 282.185 30.323,282.422 30.282,282.000 30.006 C 281.458 29.650,279.237 29.403,279.633 29.743 M282.833 30.544 C 282.925 30.623,283.540 30.808,284.200 30.956 C 285.076 31.152,285.238 31.115,284.800 30.818 C 284.260 30.453,282.432 30.198,282.833 30.544 M287.600 32.154 C 288.810 32.660,290.745 33.555,291.900 34.144 C 293.055 34.732,294.000 35.109,294.000 34.981 C 294.000 34.650,286.619 31.197,285.954 31.217 C 285.649 31.226,286.390 31.648,287.600 32.154 M105.693 33.380 C 104.439 34.072,104.062 34.501,105.012 34.155 C 105.998 33.795,107.514 32.786,106.989 32.839 C 106.775 32.861,106.192 33.104,105.693 33.380 M101.575 35.722 C 98.884 37.606,97.600 38.675,97.600 39.032 C 97.600 39.207,98.095 38.890,98.700 38.328 C 99.305 37.766,100.788 36.653,101.995 35.853 C 103.202 35.054,104.012 34.410,103.795 34.422 C 103.578 34.434,102.579 35.019,101.575 35.722 M301.515 41.165 C 303.558 43.218,305.771 45.686,306.434 46.649 C 307.096 47.612,307.732 48.400,307.846 48.400 C 308.647 48.400,302.909 41.723,300.031 39.305 C 298.510 38.028,298.982 38.619,301.515 41.165 M94.388 41.900 L 91.800 44.600 94.500 42.012 C 97.008 39.607,97.383 39.200,97.088 39.200 C 97.027 39.200,95.812 40.415,94.388 41.900 M91.144 45.500 C 89.875 47.032,89.419 47.742,89.881 47.465 C 90.393 47.158,92.169 44.800,91.889 44.800 C 91.798 44.800,91.463 45.115,91.144 45.500 M308.830 50.200 C 309.324 51.080,309.900 51.980,310.110 52.200 C 310.709 52.828,309.339 50.294,308.596 49.400 C 308.230 48.960,308.335 49.320,308.830 50.200 M87.814 50.235 C 87.441 50.804,87.205 51.338,87.289 51.422 C 87.373 51.507,87.758 51.041,88.144 50.388 C 89.006 48.928,88.748 48.809,87.814 50.235 M86.308 52.900 C 85.433 54.249,84.648 55.856,85.087 55.400 C 85.648 54.817,87.298 52.000,87.079 52.000 C 86.976 52.000,86.629 52.405,86.308 52.900 M311.579 55.000 C 312.299 56.320,313.075 57.580,313.304 57.800 C 313.533 58.020,313.126 57.120,312.400 55.800 C 311.674 54.480,310.898 53.220,310.675 53.000 C 310.452 52.780,310.859 53.680,311.579 55.000 M83.959 56.900 C 83.701 57.395,83.035 58.610,82.479 59.600 C 81.923 60.590,81.658 61.220,81.890 61.000 C 82.472 60.448,84.929 56.000,84.652 56.000 C 84.529 56.000,84.217 56.405,83.959 56.900 M313.960 59.000 C 314.634 60.305,315.188 61.028,315.185 60.600 C 315.183 60.380,314.814 59.750,314.364 59.200 C 313.821 58.536,313.685 58.469,313.960 59.000 M315.800 62.400 C 316.141 63.060,316.511 63.600,316.621 63.600 C 316.731 63.600,316.541 63.060,316.200 62.400 C 315.859 61.740,315.489 61.200,315.379 61.200 C 315.269 61.200,315.459 61.740,315.800 62.400 M80.614 62.635 C 80.241 63.204,80.005 63.738,80.089 63.822 C 80.173 63.907,80.558 63.441,80.944 62.788 C 81.806 61.328,81.548 61.209,80.614 62.635 M317.160 64.600 C 317.834 65.905,318.388 66.628,318.385 66.200 C 318.383 65.980,318.014 65.350,317.564 64.800 C 317.021 64.136,316.885 64.069,317.160 64.600 M79.014 65.435 C 78.641 66.004,78.405 66.538,78.489 66.622 C 78.573 66.707,78.958 66.241,79.344 65.588 C 80.206 64.128,79.948 64.009,79.014 65.435 M318.760 67.400 C 319.434 68.705,319.988 69.428,319.985 69.000 C 319.983 68.780,319.614 68.150,319.164 67.600 C 318.621 66.936,318.485 66.869,318.760 67.400 M76.359 70.100 C 75.437 71.695,74.242 73.765,73.703 74.700 C 73.165 75.635,72.815 76.400,72.927 76.400 C 73.039 76.400,73.978 74.915,75.014 73.100 C 76.050 71.285,77.251 69.215,77.682 68.500 C 78.113 67.785,78.369 67.200,78.250 67.200 C 78.132 67.200,77.281 68.505,76.359 70.100 M320.718 70.900 C 321.149 71.615,322.350 73.685,323.386 75.500 C 324.422 77.315,325.361 78.800,325.473 78.800 C 325.585 78.800,325.235 78.035,324.697 77.100 C 321.064 70.793,320.341 69.600,320.150 69.600 C 320.031 69.600,320.287 70.185,320.718 70.900 M71.814 77.835 C 71.441 78.404,71.205 78.938,71.289 79.022 C 71.373 79.107,71.758 78.641,72.144 77.988 C 73.006 76.528,72.748 76.409,71.814 77.835 M326.779 81.400 C 327.499 82.720,328.275 83.980,328.504 84.200 C 328.733 84.420,328.326 83.520,327.600 82.200 C 326.874 80.880,326.098 79.620,325.875 79.400 C 325.652 79.180,326.059 80.080,326.779 81.400 M70.214 80.635 C 69.841 81.204,69.627 81.761,69.739 81.872 C 69.850 81.983,70.229 81.518,70.581 80.837 C 71.359 79.333,71.144 79.215,70.214 80.635 M67.559 85.300 C 66.637 86.895,65.442 88.965,64.903 89.900 C 64.365 90.835,64.015 91.600,64.127 91.600 C 64.239 91.600,65.178 90.115,66.214 88.300 C 67.250 86.485,68.451 84.415,68.882 83.700 C 69.313 82.985,69.569 82.400,69.450 82.400 C 69.332 82.400,68.481 83.705,67.559 85.300 M329.160 85.400 C 329.834 86.705,330.388 87.428,330.385 87.000 C 330.383 86.780,330.014 86.150,329.564 85.600 C 329.021 84.936,328.885 84.869,329.160 85.400 M330.986 88.700 C 331.335 89.415,331.706 90.000,331.810 90.000 C 332.208 90.000,331.952 89.363,331.167 88.400 L 330.352 87.400 330.986 88.700 M333.056 92.300 C 334.444 94.718,335.200 95.851,335.200 95.510 C 335.200 95.119,332.397 90.400,332.164 90.400 C 332.055 90.400,332.457 91.255,333.056 92.300 M63.000 93.200 C 62.659 93.860,62.469 94.400,62.579 94.400 C 62.689 94.400,63.059 93.860,63.400 93.200 C 63.741 92.540,63.931 92.000,63.821 92.000 C 63.711 92.000,63.341 92.540,63.000 93.200 M61.400 96.000 C 61.059 96.660,60.869 97.200,60.979 97.200 C 61.089 97.200,61.459 96.660,61.800 96.000 C 62.141 95.340,62.331 94.800,62.221 94.800 C 62.111 94.800,61.741 95.340,61.400 96.000 M336.030 97.400 C 336.524 98.280,337.100 99.180,337.310 99.400 C 337.909 100.028,336.539 97.494,335.796 96.600 C 335.430 96.160,335.535 96.520,336.030 97.400 M59.814 98.635 C 59.441 99.204,59.205 99.738,59.289 99.822 C 59.373 99.907,59.758 99.441,60.144 98.788 C 61.006 97.328,60.748 97.209,59.814 98.635 M338.779 102.200 C 339.499 103.520,340.275 104.780,340.504 105.000 C 340.733 105.220,340.326 104.320,339.600 103.000 C 338.874 101.680,338.098 100.420,337.875 100.200 C 337.652 99.980,338.059 100.880,338.779 102.200 M58.214 101.435 C 57.841 102.004,57.605 102.538,57.689 102.622 C 57.773 102.707,58.158 102.241,58.544 101.588 C 59.406 100.128,59.148 100.009,58.214 101.435 M55.559 106.100 C 54.637 107.695,53.442 109.765,52.903 110.700 C 52.365 111.635,52.015 112.400,52.127 112.400 C 52.239 112.400,53.178 110.915,54.214 109.100 C 55.250 107.285,56.451 105.215,56.882 104.500 C 57.313 103.785,57.569 103.200,57.450 103.200 C 57.332 103.200,56.481 104.505,55.559 106.100 M341.400 106.800 C 341.741 107.460,342.111 108.000,342.221 108.000 C 342.331 108.000,342.141 107.460,341.800 106.800 C 341.459 106.140,341.089 105.600,340.979 105.600 C 340.869 105.600,341.059 106.140,341.400 106.800 M343.000 109.600 C 343.341 110.260,343.711 110.800,343.821 110.800 C 343.931 110.800,343.741 110.260,343.400 109.600 C 343.059 108.940,342.689 108.400,342.579 108.400 C 342.469 108.400,342.659 108.940,343.000 109.600 M344.360 111.800 C 345.034 113.105,345.588 113.828,345.585 113.400 C 345.583 113.180,345.214 112.550,344.764 112.000 C 344.221 111.336,344.085 111.269,344.360 111.800 M51.014 113.835 C 50.641 114.404,50.405 114.938,50.489 115.022 C 50.573 115.107,50.958 114.641,51.344 113.988 C 52.206 112.528,51.948 112.409,51.014 113.835 M345.960 114.600 C 346.634 115.905,347.188 116.628,347.185 116.200 C 347.183 115.980,346.814 115.350,346.364 114.800 C 345.821 114.136,345.685 114.069,345.960 114.600 M49.414 116.635 C 49.041 117.204,48.827 117.761,48.939 117.872 C 49.050 117.983,49.429 117.518,49.781 116.837 C 50.559 115.333,50.344 115.215,49.414 116.635 M347.918 118.100 C 348.349 118.815,349.550 120.885,350.586 122.700 C 351.622 124.515,352.561 126.000,352.673 126.000 C 352.785 126.000,352.435 125.235,351.897 124.300 C 348.264 117.993,347.541 116.800,347.350 116.800 C 347.231 116.800,347.487 117.385,347.918 118.100 M46.759 121.300 C 45.837 122.895,44.642 124.965,44.103 125.900 C 43.565 126.835,43.215 127.600,43.327 127.600 C 43.439 127.600,44.378 126.115,45.414 124.300 C 46.450 122.485,47.651 120.415,48.082 119.700 C 48.513 118.985,48.769 118.400,48.650 118.400 C 48.532 118.400,47.681 119.705,46.759 121.300 M353.979 128.600 C 354.699 129.920,355.475 131.180,355.704 131.400 C 355.933 131.620,355.526 130.720,354.800 129.400 C 354.074 128.080,353.298 126.820,353.075 126.600 C 352.852 126.380,353.259 127.280,353.979 128.600 M42.200 129.200 C 41.859 129.860,41.669 130.400,41.779 130.400 C 41.889 130.400,42.259 129.860,42.600 129.200 C 42.941 128.540,43.131 128.000,43.021 128.000 C 42.911 128.000,42.541 128.540,42.200 129.200 M40.600 132.000 C 40.259 132.660,40.069 133.200,40.179 133.200 C 40.289 133.200,40.659 132.660,41.000 132.000 C 41.341 131.340,41.531 130.800,41.421 130.800 C 41.311 130.800,40.941 131.340,40.600 132.000 M356.360 132.600 C 357.034 133.905,357.588 134.628,357.585 134.200 C 357.583 133.980,357.214 133.350,356.764 132.800 C 356.221 132.136,356.085 132.069,356.360 132.600 M39.014 134.635 C 38.641 135.204,38.405 135.738,38.489 135.822 C 38.573 135.907,38.958 135.441,39.344 134.788 C 40.206 133.328,39.948 133.209,39.014 134.635 M358.186 135.900 C 358.535 136.615,358.906 137.200,359.010 137.200 C 359.408 137.200,359.152 136.563,358.367 135.600 L 357.552 134.600 358.186 135.900 M37.414 137.435 C 37.041 138.004,36.805 138.538,36.889 138.622 C 36.973 138.707,37.358 138.241,37.744 137.588 C 38.606 136.128,38.348 136.009,37.414 137.435 M359.560 138.200 C 360.234 139.505,360.788 140.228,360.785 139.800 C 360.783 139.580,360.414 138.950,359.964 138.400 C 359.421 137.736,359.285 137.669,359.560 138.200 M35.908 140.100 C 35.033 141.449,34.248 143.056,34.687 142.600 C 35.248 142.017,36.898 139.200,36.679 139.200 C 36.576 139.200,36.229 139.605,35.908 140.100 M361.160 141.000 C 361.834 142.305,362.388 143.028,362.385 142.600 C 362.383 142.380,362.014 141.750,361.564 141.200 C 361.021 140.536,360.885 140.469,361.160 141.000 M33.559 144.100 C 33.301 144.595,32.635 145.810,32.079 146.800 C 31.523 147.790,31.258 148.420,31.490 148.200 C 32.072 147.648,34.529 143.200,34.252 143.200 C 34.129 143.200,33.817 143.605,33.559 144.100 M363.118 144.500 C 363.549 145.215,364.750 147.285,365.786 149.100 C 366.822 150.915,367.761 152.400,367.873 152.400 C 367.985 152.400,367.635 151.635,367.097 150.700 C 363.464 144.393,362.741 143.200,362.550 143.200 C 362.431 143.200,362.687 143.785,363.118 144.500 M30.214 149.835 C 29.841 150.404,29.605 150.938,29.689 151.022 C 29.773 151.107,30.158 150.641,30.544 149.988 C 31.406 148.528,31.148 148.409,30.214 149.835 M28.614 152.635 C 28.241 153.204,28.005 153.738,28.089 153.822 C 28.173 153.907,28.558 153.441,28.944 152.788 C 29.806 151.328,29.548 151.209,28.614 152.635 M368.600 154.000 C 368.941 154.660,369.311 155.200,369.421 155.200 C 369.531 155.200,369.341 154.660,369.000 154.000 C 368.659 153.340,368.289 152.800,368.179 152.800 C 368.069 152.800,368.259 153.340,368.600 154.000 M25.959 157.300 C 25.037 158.895,23.842 160.965,23.303 161.900 C 22.765 162.835,22.415 163.600,22.527 163.600 C 22.639 163.600,23.578 162.115,24.614 160.300 C 25.650 158.485,26.851 156.415,27.282 155.700 C 27.713 154.985,27.969 154.400,27.850 154.400 C 27.732 154.400,26.881 155.705,25.959 157.300 M370.200 156.800 C 370.541 157.460,370.911 158.000,371.021 158.000 C 371.131 158.000,370.941 157.460,370.600 156.800 C 370.259 156.140,369.889 155.600,369.779 155.600 C 369.669 155.600,369.859 156.140,370.200 156.800 M371.560 159.000 C 372.234 160.305,372.788 161.028,372.785 160.600 C 372.783 160.380,372.414 159.750,371.964 159.200 C 371.421 158.536,371.285 158.469,371.560 159.000 M373.160 161.800 C 373.834 163.105,374.388 163.828,374.385 163.400 C 374.383 163.180,374.014 162.550,373.564 162.000 C 373.021 161.336,372.885 161.269,373.160 161.800 M21.414 165.035 C 21.041 165.604,20.805 166.138,20.889 166.222 C 20.973 166.307,21.358 165.841,21.744 165.188 C 22.606 163.728,22.348 163.609,21.414 165.035 M375.118 165.300 C 375.549 166.015,376.750 168.085,377.786 169.900 C 378.822 171.715,379.761 173.200,379.873 173.200 C 379.985 173.200,379.635 172.435,379.097 171.500 C 375.464 165.193,374.741 164.000,374.550 164.000 C 374.431 164.000,374.687 164.585,375.118 165.300 M19.814 167.835 C 19.441 168.404,19.227 168.961,19.339 169.072 C 19.450 169.183,19.829 168.718,20.181 168.037 C 20.959 166.533,20.744 166.415,19.814 167.835 M17.354 172.100 C 15.261 175.624,11.994 182.045,12.030 182.564 C 12.046 182.804,12.576 181.878,13.208 180.506 C 14.229 178.291,16.150 174.794,18.486 170.900 C 18.914 170.185,19.169 169.600,19.052 169.600 C 18.934 169.600,18.170 170.725,17.354 172.100 M381.179 175.800 C 381.899 177.120,382.675 178.380,382.904 178.600 C 383.133 178.820,382.726 177.920,382.000 176.600 C 381.274 175.280,380.498 174.020,380.275 173.800 C 380.052 173.580,380.459 174.480,381.179 175.800 M384.713 183.019 C 385.084 184.020,385.439 184.682,385.503 184.491 C 385.631 184.106,384.493 181.200,384.214 181.200 C 384.117 181.200,384.342 182.019,384.713 183.019 M11.037 185.332 C 10.687 186.537,10.414 187.765,10.431 188.062 C 10.447 188.358,10.803 187.441,11.221 186.023 C 11.638 184.606,11.911 183.378,11.827 183.294 C 11.743 183.210,11.387 184.127,11.037 185.332 M385.844 186.200 C 386.173 187.671,386.402 187.990,386.394 186.967 C 386.391 186.545,386.205 185.930,385.982 185.600 C 385.685 185.162,385.648 185.324,385.844 186.200 M193.200 185.779 C 193.200 185.889,193.740 186.259,194.400 186.600 C 195.060 186.941,195.600 187.131,195.600 187.021 C 195.600 186.911,195.060 186.541,194.400 186.200 C 193.740 185.859,193.200 185.669,193.200 185.779 M386.673 189.600 C 386.804 190.590,386.976 191.475,387.056 191.567 C 387.357 191.914,387.128 189.364,386.790 188.600 C 386.553 188.066,386.514 188.398,386.673 189.600 M9.709 192.000 C 9.709 192.990,9.787 193.395,9.882 192.900 C 9.978 192.405,9.978 191.595,9.882 191.100 C 9.787 190.605,9.709 191.010,9.709 192.000 M387.400 199.200 C 387.400 202.966,387.517 205.632,387.660 205.124 C 387.803 204.616,387.920 201.950,387.920 199.200 C 387.920 196.450,387.803 193.784,387.660 193.276 C 387.517 192.768,387.400 195.434,387.400 199.200 M208.400 194.579 C 208.400 194.689,208.940 195.059,209.600 195.400 C 210.260 195.741,210.800 195.931,210.800 195.821 C 210.800 195.711,210.260 195.341,209.600 195.000 C 208.940 194.659,208.400 194.469,208.400 194.579 M9.337 198.600 C 9.339 200.360,9.409 201.030,9.493 200.089 C 9.578 199.149,9.577 197.709,9.491 196.889 C 9.405 196.070,9.336 196.840,9.337 198.600 M9.628 205.433 C 9.644 206.295,9.809 207.360,9.996 207.800 C 10.208 208.298,10.251 207.769,10.112 206.400 C 9.844 203.765,9.589 203.257,9.628 205.433 M209.500 204.629 C 208.005 205.440,208.096 205.778,209.600 205.000 C 210.260 204.659,210.800 204.294,210.800 204.190 C 210.800 203.932,210.757 203.947,209.500 204.629 M386.893 207.600 C 386.893 208.370,386.975 208.685,387.076 208.300 C 387.176 207.915,387.176 207.285,387.076 206.900 C 386.975 206.515,386.893 206.830,386.893 207.600 M10.431 209.138 C 10.390 209.858,11.632 214.101,11.827 213.906 C 11.911 213.822,11.638 212.594,11.221 211.177 C 10.803 209.759,10.447 208.842,10.431 209.138 M386.046 210.867 C 386.021 211.234,385.896 211.864,385.770 212.267 C 385.552 212.962,385.563 212.963,385.997 212.287 C 386.248 211.896,386.373 211.266,386.273 210.887 C 386.111 210.268,386.088 210.266,386.046 210.867 M194.300 213.429 C 192.805 214.240,192.896 214.578,194.400 213.800 C 195.060 213.459,195.600 213.094,195.600 212.990 C 195.600 212.732,195.557 212.747,194.300 213.429 M384.649 215.171 C 384.263 216.246,383.419 218.142,382.774 219.386 C 382.128 220.629,381.761 221.548,381.957 221.427 C 382.621 221.016,385.863 213.729,385.530 213.396 C 385.432 213.298,385.035 214.097,384.649 215.171 M12.800 216.538 C 12.800 217.029,14.485 220.406,14.840 220.625 C 15.030 220.742,14.714 219.885,14.137 218.719 C 13.019 216.464,12.800 216.106,12.800 216.538 M15.724 222.200 C 16.062 222.860,16.638 223.760,17.004 224.200 C 17.370 224.640,17.265 224.280,16.770 223.400 C 15.680 221.458,14.864 220.522,15.724 222.200 M379.386 225.300 C 378.350 227.115,377.149 229.185,376.718 229.900 C 376.287 230.615,376.031 231.200,376.150 231.200 C 376.341 231.200,377.064 230.007,380.697 223.700 C 381.235 222.765,381.585 222.000,381.473 222.000 C 381.361 222.000,380.422 223.485,379.386 225.300 M17.600 225.290 C 17.600 225.681,20.403 230.400,20.636 230.400 C 20.745 230.400,20.343 229.545,19.744 228.500 C 18.356 226.082,17.600 224.949,17.600 225.290 M20.815 231.000 C 20.817 231.220,21.186 231.850,21.636 232.400 C 22.179 233.064,22.315 233.131,22.040 232.600 C 21.366 231.295,20.812 230.572,20.815 231.000 M375.053 232.900 L 374.333 234.200 375.158 233.200 C 375.889 232.313,376.214 231.600,375.886 231.600 C 375.824 231.600,375.449 232.185,375.053 232.900 M22.415 233.800 C 22.417 234.020,22.786 234.650,23.236 235.200 C 23.779 235.864,23.915 235.931,23.640 235.400 C 22.966 234.095,22.412 233.372,22.415 233.800 M373.453 235.700 L 372.733 237.000 373.558 236.000 C 374.289 235.113,374.614 234.400,374.286 234.400 C 374.224 234.400,373.849 234.985,373.453 235.700 M24.600 237.600 C 24.941 238.260,25.311 238.800,25.421 238.800 C 25.531 238.800,25.341 238.260,25.000 237.600 C 24.659 236.940,24.289 236.400,24.179 236.400 C 24.069 236.400,24.259 236.940,24.600 237.600 M371.493 238.900 C 370.087 241.331,369.440 242.663,369.891 242.200 C 370.435 241.640,372.901 237.200,372.667 237.200 C 372.562 237.200,372.034 237.965,371.493 238.900 M26.200 240.400 C 26.541 241.060,26.911 241.600,27.021 241.600 C 27.131 241.600,26.941 241.060,26.600 240.400 C 26.259 239.740,25.889 239.200,25.779 239.200 C 25.669 239.200,25.859 239.740,26.200 240.400 M28.103 243.700 C 31.736 250.007,32.459 251.200,32.650 251.200 C 32.769 251.200,32.513 250.615,32.082 249.900 C 31.651 249.185,30.450 247.115,29.414 245.300 C 28.378 243.485,27.439 242.000,27.327 242.000 C 27.215 242.000,27.565 242.765,28.103 243.700 M368.752 243.700 C 368.490 244.195,368.015 245.050,367.696 245.600 C 367.139 246.559,367.143 246.567,367.788 245.800 C 368.586 244.852,369.705 242.800,369.424 242.800 C 369.316 242.800,369.014 243.205,368.752 243.700 M366.253 248.100 L 365.533 249.400 366.358 248.400 C 367.089 247.513,367.414 246.800,367.086 246.800 C 367.024 246.800,366.649 247.385,366.253 248.100 M364.653 250.900 L 363.933 252.200 364.758 251.200 C 365.489 250.313,365.814 249.600,365.486 249.600 C 365.424 249.600,365.049 250.185,364.653 250.900 M32.815 251.800 C 32.817 252.020,33.186 252.650,33.636 253.200 C 34.179 253.864,34.315 253.931,34.040 253.400 C 33.366 252.095,32.812 251.372,32.815 251.800 M363.000 253.600 C 362.659 254.260,362.469 254.800,362.579 254.800 C 362.689 254.800,363.059 254.260,363.400 253.600 C 363.741 252.940,363.931 252.400,363.821 252.400 C 363.711 252.400,363.341 252.940,363.000 253.600 M34.415 254.600 C 34.417 254.820,34.786 255.450,35.236 256.000 C 35.779 256.664,35.915 256.731,35.640 256.200 C 34.966 254.895,34.412 254.172,34.415 254.600 M361.400 256.400 C 361.059 257.060,360.869 257.600,360.979 257.600 C 361.089 257.600,361.459 257.060,361.800 256.400 C 362.141 255.740,362.331 255.200,362.221 255.200 C 362.111 255.200,361.741 255.740,361.400 256.400 M36.600 258.400 C 36.941 259.060,37.311 259.600,37.421 259.600 C 37.531 259.600,37.341 259.060,37.000 258.400 C 36.659 257.740,36.289 257.200,36.179 257.200 C 36.069 257.200,36.259 257.740,36.600 258.400 M358.586 261.300 C 357.550 263.115,356.349 265.185,355.918 265.900 C 355.487 266.615,355.231 267.200,355.350 267.200 C 355.541 267.200,356.264 266.007,359.897 259.700 C 360.435 258.765,360.785 258.000,360.673 258.000 C 360.561 258.000,359.622 259.485,358.586 261.300 M37.615 260.200 C 37.617 260.420,37.986 261.050,38.436 261.600 C 38.979 262.264,39.115 262.331,38.840 261.800 C 38.166 260.495,37.612 259.772,37.615 260.200 M40.400 265.000 C 41.126 266.320,41.902 267.580,42.125 267.800 C 42.348 268.020,41.941 267.120,41.221 265.800 C 40.501 264.480,39.725 263.220,39.496 263.000 C 39.267 262.780,39.674 263.680,40.400 265.000 M354.186 268.900 L 353.552 270.200 354.367 269.200 C 355.152 268.237,355.408 267.600,355.010 267.600 C 354.906 267.600,354.535 268.185,354.186 268.900 M43.303 270.100 C 46.936 276.407,47.659 277.600,47.850 277.600 C 47.969 277.600,47.713 277.015,47.282 276.300 C 46.851 275.585,45.650 273.515,44.614 271.700 C 43.578 269.885,42.639 268.400,42.527 268.400 C 42.415 268.400,42.765 269.165,43.303 270.100 M352.653 271.700 L 351.933 273.000 352.758 272.000 C 353.489 271.113,353.814 270.400,353.486 270.400 C 353.424 270.400,353.049 270.985,352.653 271.700 M349.786 276.500 C 348.750 278.315,347.549 280.385,347.118 281.100 C 346.687 281.815,346.431 282.400,346.550 282.400 C 346.741 282.400,347.464 281.207,351.097 274.900 C 351.635 273.965,351.985 273.200,351.873 273.200 C 351.761 273.200,350.822 274.685,349.786 276.500 M48.015 278.200 C 48.017 278.420,48.386 279.050,48.836 279.600 C 49.379 280.264,49.515 280.331,49.240 279.800 C 48.566 278.495,48.012 277.772,48.015 278.200 M49.615 281.000 C 49.617 281.220,49.986 281.850,50.436 282.400 C 50.979 283.064,51.115 283.131,50.840 282.600 C 50.166 281.295,49.612 280.572,49.615 281.000 M345.453 284.100 L 344.733 285.400 345.558 284.400 C 346.289 283.513,346.614 282.800,346.286 282.800 C 346.224 282.800,345.849 283.385,345.453 284.100 M51.800 284.800 C 52.141 285.460,52.511 286.000,52.621 286.000 C 52.731 286.000,52.541 285.460,52.200 284.800 C 51.859 284.140,51.489 283.600,51.379 283.600 C 51.269 283.600,51.459 284.140,51.800 284.800 M343.853 286.900 L 343.133 288.200 343.958 287.200 C 344.689 286.313,345.014 285.600,344.686 285.600 C 344.624 285.600,344.249 286.185,343.853 286.900 M53.400 287.600 C 53.741 288.260,54.111 288.800,54.221 288.800 C 54.331 288.800,54.141 288.260,53.800 287.600 C 53.459 286.940,53.089 286.400,52.979 286.400 C 52.869 286.400,53.059 286.940,53.400 287.600 M341.893 290.100 C 340.487 292.531,339.840 293.863,340.291 293.400 C 340.835 292.840,343.301 288.400,343.067 288.400 C 342.962 288.400,342.434 289.165,341.893 290.100 M55.303 290.900 C 58.936 297.207,59.659 298.400,59.850 298.400 C 59.969 298.400,59.713 297.815,59.282 297.100 C 58.851 296.385,57.650 294.315,56.614 292.500 C 55.578 290.685,54.639 289.200,54.527 289.200 C 54.415 289.200,54.765 289.965,55.303 290.900 M339.152 294.900 C 338.890 295.395,338.415 296.250,338.096 296.800 C 337.539 297.759,337.543 297.767,338.188 297.000 C 338.986 296.052,340.105 294.000,339.824 294.000 C 339.716 294.000,339.414 294.405,339.152 294.900 M336.653 299.300 L 335.933 300.600 336.758 299.600 C 337.489 298.713,337.814 298.000,337.486 298.000 C 337.424 298.000,337.049 298.585,336.653 299.300 M60.015 299.000 C 60.017 299.220,60.386 299.850,60.836 300.400 C 61.379 301.064,61.515 301.131,61.240 300.600 C 60.566 299.295,60.012 298.572,60.015 299.000 M335.053 302.100 L 334.333 303.400 335.158 302.400 C 335.889 301.513,336.214 300.800,335.886 300.800 C 335.824 300.800,335.449 301.385,335.053 302.100 M61.615 301.800 C 61.617 302.020,61.986 302.650,62.436 303.200 C 62.979 303.864,63.115 303.931,62.840 303.400 C 62.166 302.095,61.612 301.372,61.615 301.800 M333.400 304.800 C 333.059 305.460,332.869 306.000,332.979 306.000 C 333.089 306.000,333.459 305.460,333.800 304.800 C 334.141 304.140,334.331 303.600,334.221 303.600 C 334.111 303.600,333.741 304.140,333.400 304.800 M63.209 304.700 C 63.214 304.865,63.585 305.450,64.033 306.000 L 64.848 307.000 64.214 305.700 C 63.611 304.465,63.189 304.045,63.209 304.700 M331.800 307.600 C 331.459 308.260,331.269 308.800,331.379 308.800 C 331.489 308.800,331.859 308.260,332.200 307.600 C 332.541 306.940,332.731 306.400,332.621 306.400 C 332.511 306.400,332.141 306.940,331.800 307.600 M64.815 307.400 C 64.817 307.620,65.186 308.250,65.636 308.800 C 66.179 309.464,66.315 309.531,66.040 309.000 C 65.366 307.695,64.812 306.972,64.815 307.400 M328.986 312.500 C 327.950 314.315,326.749 316.385,326.318 317.100 C 325.887 317.815,325.631 318.400,325.750 318.400 C 325.941 318.400,326.664 317.207,330.297 310.900 C 330.835 309.965,331.185 309.200,331.073 309.200 C 330.961 309.200,330.022 310.685,328.986 312.500 M67.600 312.200 C 68.326 313.520,69.102 314.780,69.325 315.000 C 69.548 315.220,69.141 314.320,68.421 313.000 C 67.701 311.680,66.925 310.420,66.696 310.200 C 66.467 309.980,66.874 310.880,67.600 312.200 M70.503 317.300 C 74.136 323.607,74.859 324.800,75.050 324.800 C 75.169 324.800,74.913 324.215,74.482 323.500 C 74.051 322.785,72.850 320.715,71.814 318.900 C 70.778 317.085,69.839 315.600,69.727 315.600 C 69.615 315.600,69.965 316.365,70.503 317.300 M324.586 320.100 L 323.952 321.400 324.767 320.400 C 325.552 319.437,325.808 318.800,325.410 318.800 C 325.306 318.800,324.935 319.385,324.586 320.100 M323.053 322.900 L 322.333 324.200 323.158 323.200 C 323.889 322.313,324.214 321.600,323.886 321.600 C 323.824 321.600,323.449 322.185,323.053 322.900 M320.186 327.700 C 319.150 329.515,317.949 331.585,317.518 332.300 C 317.087 333.015,316.831 333.600,316.950 333.600 C 317.141 333.600,317.864 332.407,321.497 326.100 C 322.035 325.165,322.385 324.400,322.273 324.400 C 322.161 324.400,321.222 325.885,320.186 327.700 M75.215 325.400 C 75.217 325.620,75.586 326.250,76.036 326.800 C 76.579 327.464,76.715 327.531,76.440 327.000 C 75.766 325.695,75.212 324.972,75.215 325.400 M76.815 328.200 C 76.817 328.420,77.186 329.050,77.636 329.600 C 78.179 330.264,78.315 330.331,78.040 329.800 C 77.366 328.495,76.812 327.772,76.815 328.200 M79.000 332.000 C 79.341 332.660,79.711 333.200,79.821 333.200 C 79.931 333.200,79.741 332.660,79.400 332.000 C 79.059 331.340,78.689 330.800,78.579 330.800 C 78.469 330.800,78.659 331.340,79.000 332.000 M80.600 334.800 C 80.941 335.460,81.311 336.000,81.421 336.000 C 81.531 336.000,81.341 335.460,81.000 334.800 C 80.659 334.140,80.289 333.600,80.179 333.600 C 80.069 333.600,80.259 334.140,80.600 334.800 M315.853 335.300 L 315.133 336.600 315.958 335.600 C 316.689 334.713,317.014 334.000,316.686 334.000 C 316.624 334.000,316.249 334.585,315.853 335.300 M82.503 338.100 C 86.136 344.407,86.859 345.600,87.050 345.600 C 87.169 345.600,86.913 345.015,86.482 344.300 C 86.051 343.585,84.850 341.515,83.814 339.700 C 82.778 337.885,81.839 336.400,81.727 336.400 C 81.615 336.400,81.965 337.165,82.503 338.100 M314.253 338.100 L 313.533 339.400 314.358 338.400 C 315.089 337.513,315.414 336.800,315.086 336.800 C 315.024 336.800,314.649 337.385,314.253 338.100 M312.293 341.300 C 310.887 343.731,310.240 345.063,310.691 344.600 C 311.235 344.040,313.701 339.600,313.467 339.600 C 313.362 339.600,312.834 340.365,312.293 341.300 M309.552 346.100 C 309.290 346.595,308.815 347.450,308.496 348.000 C 307.939 348.959,307.943 348.967,308.588 348.200 C 309.386 347.252,310.505 345.200,310.224 345.200 C 310.116 345.200,309.814 345.605,309.552 346.100 M87.200 346.141 C 87.200 346.524,89.165 349.600,89.410 349.600 C 89.520 349.600,89.134 348.835,88.551 347.900 C 87.326 345.934,87.200 345.769,87.200 346.141 M306.434 350.951 C 305.771 351.914,303.558 354.382,301.515 356.435 C 298.982 358.981,298.510 359.572,300.031 358.295 C 302.909 355.877,308.647 349.200,307.846 349.200 C 307.732 349.200,307.096 349.988,306.434 350.951 M90.391 351.188 C 90.857 351.841,91.442 352.502,91.691 352.656 C 91.941 352.811,91.641 352.276,91.025 351.468 C 89.688 349.715,89.184 349.492,90.391 351.188 M94.400 355.800 C 95.817 357.230,97.067 358.400,97.177 358.400 C 97.287 358.400,96.217 357.230,94.800 355.800 C 93.383 354.370,92.133 353.200,92.023 353.200 C 91.913 353.200,92.983 354.370,94.400 355.800 M97.600 358.581 C 97.600 358.970,98.206 359.469,101.278 361.611 C 102.531 362.485,103.699 363.200,103.873 363.200 C 104.047 363.200,103.202 362.546,101.995 361.747 C 100.788 360.947,99.305 359.834,98.700 359.272 C 98.095 358.710,97.600 358.399,97.600 358.581 M292.600 363.200 C 291.940 363.637,291.580 363.992,291.800 363.988 C 292.201 363.982,294.376 362.423,294.000 362.412 C 293.890 362.408,293.260 362.763,292.600 363.200 M104.400 363.398 C 104.400 363.667,108.449 365.684,108.629 365.505 C 108.711 365.423,107.793 364.873,106.589 364.282 C 105.385 363.692,104.400 363.294,104.400 363.398 M287.400 365.618 C 286.300 366.030,285.693 366.374,286.051 366.383 C 286.779 366.402,289.600 365.298,289.600 364.995 C 289.600 364.888,289.555 364.816,289.500 364.835 C 289.445 364.854,288.500 365.206,287.400 365.618 M112.000 366.782 C 112.330 367.005,112.945 367.191,113.367 367.194 C 114.390 367.202,114.071 366.973,112.600 366.644 C 111.724 366.448,111.562 366.485,112.000 366.782 M283.600 366.800 C 282.776 367.064,282.741 367.126,283.400 367.154 C 283.840 367.173,284.470 367.013,284.800 366.800 C 285.501 366.347,285.014 366.347,283.600 366.800 M115.000 367.581 C 115.768 367.929,117.910 368.156,117.567 367.853 C 117.475 367.772,116.680 367.596,115.800 367.462 C 114.685 367.293,114.442 367.329,115.000 367.581 M280.600 367.600 C 279.493 367.882,279.477 367.909,280.400 367.947 C 280.950 367.969,281.670 367.813,282.000 367.600 C 282.681 367.160,282.329 367.160,280.600 367.600 M119.023 368.453 C 120.561 368.783,276.639 368.783,278.177 368.453 C 278.825 368.314,243.015 368.200,198.600 368.200 C 154.185 368.200,118.375 368.314,119.023 368.453 " stroke="none" fill="#fc6868" fill-rule="evenodd"></path><path id="path3" d="M160.132 28.700 C 181.434 28.757,216.174 28.757,237.332 28.700 C 258.489 28.643,241.060 28.596,198.600 28.596 C 156.140 28.596,138.829 28.643,160.132 28.700 M117.000 29.200 C 115.981 29.638,117.032 29.638,118.400 29.200 C 119.204 28.943,119.243 28.877,118.600 28.868 C 118.160 28.862,117.440 29.011,117.000 29.200 M277.633 28.947 C 277.725 29.028,278.520 29.204,279.400 29.338 C 280.515 29.507,280.758 29.471,280.200 29.219 C 279.432 28.871,277.290 28.644,277.633 28.947 M113.400 30.000 C 112.896 30.217,112.822 30.344,113.200 30.344 C 113.530 30.344,114.160 30.189,114.600 30.000 C 115.104 29.783,115.178 29.656,114.800 29.656 C 114.470 29.656,113.840 29.811,113.400 30.000 M282.200 30.000 C 282.640 30.189,283.270 30.344,283.600 30.344 C 283.978 30.344,283.904 30.217,283.400 30.000 C 282.960 29.811,282.330 29.656,282.000 29.656 C 281.622 29.656,281.696 29.783,282.200 30.000 M106.300 32.629 C 104.749 33.470,104.925 33.761,106.500 32.959 C 108.008 32.193,108.275 31.994,107.767 32.016 C 107.565 32.025,106.905 32.301,106.300 32.629 M292.400 33.779 C 292.400 33.889,292.940 34.259,293.600 34.600 C 294.260 34.941,294.800 35.131,294.800 35.021 C 294.800 34.911,294.260 34.541,293.600 34.200 C 292.940 33.859,292.400 33.669,292.400 33.779 M100.895 35.811 C 99.743 36.586,98.800 37.308,98.800 37.415 C 98.800 37.521,99.790 36.951,101.000 36.147 C 102.922 34.871,103.487 34.400,103.095 34.400 C 103.037 34.400,102.047 35.035,100.895 35.811 M300.478 39.522 C 301.962 40.909,303.923 42.889,304.837 43.922 C 305.751 44.955,306.130 45.260,305.679 44.600 C 304.858 43.397,300.682 39.268,298.791 37.789 C 298.236 37.355,298.995 38.135,300.478 39.522 M96.705 39.032 C 95.883 39.784,95.344 40.395,95.506 40.388 C 95.897 40.373,98.515 37.982,98.337 37.803 C 98.260 37.727,97.526 38.280,96.705 39.032 M92.815 42.941 L 91.029 45.000 93.115 43.015 C 94.262 41.923,95.200 40.978,95.200 40.915 C 95.200 40.451,94.338 41.183,92.815 42.941 M89.775 46.668 C 89.159 47.476,88.859 48.011,89.109 47.856 C 89.621 47.540,91.353 45.200,91.075 45.200 C 90.976 45.200,90.391 45.861,89.775 46.668 M307.375 47.332 C 307.991 48.139,308.576 48.800,308.675 48.800 C 308.953 48.800,307.221 46.460,306.709 46.144 C 306.459 45.989,306.759 46.524,307.375 47.332 M309.400 50.400 C 309.741 51.060,310.111 51.600,310.221 51.600 C 310.331 51.600,310.141 51.060,309.800 50.400 C 309.459 49.740,309.089 49.200,308.979 49.200 C 308.869 49.200,309.059 49.740,309.400 50.400 M311.000 53.200 C 311.341 53.860,311.711 54.400,311.821 54.400 C 311.931 54.400,311.741 53.860,311.400 53.200 C 311.059 52.540,310.689 52.000,310.579 52.000 C 310.469 52.000,310.659 52.540,311.000 53.200 M85.400 53.600 C 85.059 54.260,84.869 54.800,84.979 54.800 C 85.089 54.800,85.459 54.260,85.800 53.600 C 86.141 52.940,86.331 52.400,86.221 52.400 C 86.111 52.400,85.741 52.940,85.400 53.600 M312.600 56.000 C 312.941 56.660,313.311 57.200,313.421 57.200 C 313.531 57.200,313.341 56.660,313.000 56.000 C 312.659 55.340,312.289 54.800,312.179 54.800 C 312.069 54.800,312.259 55.340,312.600 56.000 M83.800 56.400 C 83.459 57.060,83.269 57.600,83.379 57.600 C 83.489 57.600,83.859 57.060,84.200 56.400 C 84.541 55.740,84.731 55.200,84.621 55.200 C 84.511 55.200,84.141 55.740,83.800 56.400 M314.200 58.800 C 314.541 59.460,314.911 60.000,315.021 60.000 C 315.131 60.000,314.941 59.460,314.600 58.800 C 314.259 58.140,313.889 57.600,313.779 57.600 C 313.669 57.600,313.859 58.140,314.200 58.800 M82.200 59.200 C 81.859 59.860,81.669 60.400,81.779 60.400 C 81.889 60.400,82.259 59.860,82.600 59.200 C 82.941 58.540,83.131 58.000,83.021 58.000 C 82.911 58.000,82.541 58.540,82.200 59.200 M315.800 61.600 C 316.141 62.260,316.511 62.800,316.621 62.800 C 316.731 62.800,316.541 62.260,316.200 61.600 C 315.859 60.940,315.489 60.400,315.379 60.400 C 315.269 60.400,315.459 60.940,315.800 61.600 M80.600 62.000 C 80.259 62.660,80.069 63.200,80.179 63.200 C 80.289 63.200,80.659 62.660,81.000 62.000 C 81.341 61.340,81.531 60.800,81.421 60.800 C 81.311 60.800,80.941 61.340,80.600 62.000 M79.000 64.800 C 78.659 65.460,78.469 66.000,78.579 66.000 C 78.689 66.000,79.059 65.460,79.400 64.800 C 79.741 64.140,79.931 63.600,79.821 63.600 C 79.711 63.600,79.341 64.140,79.000 64.800 M76.653 68.900 L 75.933 70.200 76.758 69.200 C 77.489 68.313,77.814 67.600,77.486 67.600 C 77.424 67.600,77.049 68.185,76.653 68.900 M320.815 70.200 C 320.817 70.420,321.186 71.050,321.636 71.600 C 322.179 72.264,322.315 72.331,322.040 71.800 C 321.366 70.495,320.812 69.772,320.815 70.200 M75.053 71.700 L 74.333 73.000 75.158 72.000 C 75.889 71.113,76.214 70.400,75.886 70.400 C 75.824 70.400,75.449 70.985,75.053 71.700 M322.415 73.000 C 322.417 73.220,322.786 73.850,323.236 74.400 C 323.779 75.064,323.915 75.131,323.640 74.600 C 322.966 73.295,322.412 72.572,322.415 73.000 M73.400 74.400 C 73.059 75.060,72.869 75.600,72.979 75.600 C 73.089 75.600,73.459 75.060,73.800 74.400 C 74.141 73.740,74.331 73.200,74.221 73.200 C 74.111 73.200,73.741 73.740,73.400 74.400 M324.600 76.800 C 324.941 77.460,325.311 78.000,325.421 78.000 C 325.531 78.000,325.341 77.460,325.000 76.800 C 324.659 76.140,324.289 75.600,324.179 75.600 C 324.069 75.600,324.259 76.140,324.600 76.800 M71.800 77.200 C 71.459 77.860,71.269 78.400,71.379 78.400 C 71.489 78.400,71.859 77.860,72.200 77.200 C 72.541 76.540,72.731 76.000,72.621 76.000 C 72.511 76.000,72.141 76.540,71.800 77.200 M326.200 79.600 C 326.541 80.260,326.911 80.800,327.021 80.800 C 327.131 80.800,326.941 80.260,326.600 79.600 C 326.259 78.940,325.889 78.400,325.779 78.400 C 325.669 78.400,325.859 78.940,326.200 79.600 M70.200 80.000 C 69.859 80.660,69.669 81.200,69.779 81.200 C 69.889 81.200,70.259 80.660,70.600 80.000 C 70.941 79.340,71.131 78.800,71.021 78.800 C 70.911 78.800,70.541 79.340,70.200 80.000 M327.800 82.400 C 328.141 83.060,328.511 83.600,328.621 83.600 C 328.731 83.600,328.541 83.060,328.200 82.400 C 327.859 81.740,327.489 81.200,327.379 81.200 C 327.269 81.200,327.459 81.740,327.800 82.400 M329.400 85.200 C 329.741 85.860,330.111 86.400,330.221 86.400 C 330.331 86.400,330.141 85.860,329.800 85.200 C 329.459 84.540,329.089 84.000,328.979 84.000 C 328.869 84.000,329.059 84.540,329.400 85.200 M66.253 86.900 L 65.533 88.200 66.358 87.200 C 67.089 86.313,67.414 85.600,67.086 85.600 C 67.024 85.600,66.649 86.185,66.253 86.900 M331.000 88.000 C 331.341 88.660,331.711 89.200,331.821 89.200 C 331.931 89.200,331.741 88.660,331.400 88.000 C 331.059 87.340,330.689 86.800,330.579 86.800 C 330.469 86.800,330.659 87.340,331.000 88.000 M64.600 89.600 C 64.259 90.260,64.069 90.800,64.179 90.800 C 64.289 90.800,64.659 90.260,65.000 89.600 C 65.341 88.940,65.531 88.400,65.421 88.400 C 65.311 88.400,64.941 88.940,64.600 89.600 M63.000 92.400 C 62.659 93.060,62.469 93.600,62.579 93.600 C 62.689 93.600,63.059 93.060,63.400 92.400 C 63.741 91.740,63.931 91.200,63.821 91.200 C 63.711 91.200,63.341 91.740,63.000 92.400 M61.400 95.200 C 61.059 95.860,60.869 96.400,60.979 96.400 C 61.089 96.400,61.459 95.860,61.800 95.200 C 62.141 94.540,62.331 94.000,62.221 94.000 C 62.111 94.000,61.741 94.540,61.400 95.200 M336.600 97.600 C 336.941 98.260,337.311 98.800,337.421 98.800 C 337.531 98.800,337.341 98.260,337.000 97.600 C 336.659 96.940,336.289 96.400,336.179 96.400 C 336.069 96.400,336.259 96.940,336.600 97.600 M338.200 100.400 C 338.541 101.060,338.911 101.600,339.021 101.600 C 339.131 101.600,338.941 101.060,338.600 100.400 C 338.259 99.740,337.889 99.200,337.779 99.200 C 337.669 99.200,337.859 99.740,338.200 100.400 M58.200 100.800 C 57.859 101.460,57.669 102.000,57.779 102.000 C 57.889 102.000,58.259 101.460,58.600 100.800 C 58.941 100.140,59.131 99.600,59.021 99.600 C 58.911 99.600,58.541 100.140,58.200 100.800 M339.800 103.200 C 340.141 103.860,340.511 104.400,340.621 104.400 C 340.731 104.400,340.541 103.860,340.200 103.200 C 339.859 102.540,339.489 102.000,339.379 102.000 C 339.269 102.000,339.459 102.540,339.800 103.200 M55.853 104.900 L 55.133 106.200 55.958 105.200 C 56.689 104.313,57.014 103.600,56.686 103.600 C 56.624 103.600,56.249 104.185,55.853 104.900 M341.400 106.000 C 341.741 106.660,342.111 107.200,342.221 107.200 C 342.331 107.200,342.141 106.660,341.800 106.000 C 341.459 105.340,341.089 104.800,340.979 104.800 C 340.869 104.800,341.059 105.340,341.400 106.000 M54.253 107.700 L 53.533 109.000 54.358 108.000 C 55.089 107.113,55.414 106.400,55.086 106.400 C 55.024 106.400,54.649 106.985,54.253 107.700 M343.000 108.800 C 343.341 109.460,343.711 110.000,343.821 110.000 C 343.931 110.000,343.741 109.460,343.400 108.800 C 343.059 108.140,342.689 107.600,342.579 107.600 C 342.469 107.600,342.659 108.140,343.000 108.800 M52.600 110.400 C 52.259 111.060,52.069 111.600,52.179 111.600 C 52.289 111.600,52.659 111.060,53.000 110.400 C 53.341 109.740,53.531 109.200,53.421 109.200 C 53.311 109.200,52.941 109.740,52.600 110.400 M51.000 113.200 C 50.659 113.860,50.469 114.400,50.579 114.400 C 50.689 114.400,51.059 113.860,51.400 113.200 C 51.741 112.540,51.931 112.000,51.821 112.000 C 51.711 112.000,51.341 112.540,51.000 113.200 M346.200 114.400 C 346.541 115.060,346.911 115.600,347.021 115.600 C 347.131 115.600,346.941 115.060,346.600 114.400 C 346.259 113.740,345.889 113.200,345.779 113.200 C 345.669 113.200,345.859 113.740,346.200 114.400 M49.400 116.000 C 49.059 116.660,48.869 117.200,48.979 117.200 C 49.089 117.200,49.459 116.660,49.800 116.000 C 50.141 115.340,50.331 114.800,50.221 114.800 C 50.111 114.800,49.741 115.340,49.400 116.000 M348.015 117.400 C 348.017 117.620,348.386 118.250,348.836 118.800 C 349.379 119.464,349.515 119.531,349.240 119.000 C 348.566 117.695,348.012 116.972,348.015 117.400 M349.615 120.200 C 349.617 120.420,349.986 121.050,350.436 121.600 C 350.979 122.264,351.115 122.331,350.840 121.800 C 350.166 120.495,349.612 119.772,349.615 120.200 M45.453 122.900 L 44.733 124.200 45.558 123.200 C 46.289 122.313,46.614 121.600,46.286 121.600 C 46.224 121.600,45.849 122.185,45.453 122.900 M351.800 124.000 C 352.141 124.660,352.511 125.200,352.621 125.200 C 352.731 125.200,352.541 124.660,352.200 124.000 C 351.859 123.340,351.489 122.800,351.379 122.800 C 351.269 122.800,351.459 123.340,351.800 124.000 M43.800 125.600 C 43.459 126.260,43.269 126.800,43.379 126.800 C 43.489 126.800,43.859 126.260,44.200 125.600 C 44.541 124.940,44.731 124.400,44.621 124.400 C 44.511 124.400,44.141 124.940,43.800 125.600 M353.400 126.800 C 353.741 127.460,354.111 128.000,354.221 128.000 C 354.331 128.000,354.141 127.460,353.800 126.800 C 353.459 126.140,353.089 125.600,352.979 125.600 C 352.869 125.600,353.059 126.140,353.400 126.800 M42.200 128.400 C 41.859 129.060,41.669 129.600,41.779 129.600 C 41.889 129.600,42.259 129.060,42.600 128.400 C 42.941 127.740,43.131 127.200,43.021 127.200 C 42.911 127.200,42.541 127.740,42.200 128.400 M355.000 129.600 C 355.341 130.260,355.711 130.800,355.821 130.800 C 355.931 130.800,355.741 130.260,355.400 129.600 C 355.059 128.940,354.689 128.400,354.579 128.400 C 354.469 128.400,354.659 128.940,355.000 129.600 M40.600 131.200 C 40.259 131.860,40.069 132.400,40.179 132.400 C 40.289 132.400,40.659 131.860,41.000 131.200 C 41.341 130.540,41.531 130.000,41.421 130.000 C 41.311 130.000,40.941 130.540,40.600 131.200 M356.600 132.400 C 356.941 133.060,357.311 133.600,357.421 133.600 C 357.531 133.600,357.341 133.060,357.000 132.400 C 356.659 131.740,356.289 131.200,356.179 131.200 C 356.069 131.200,356.259 131.740,356.600 132.400 M358.200 135.200 C 358.541 135.860,358.911 136.400,359.021 136.400 C 359.131 136.400,358.941 135.860,358.600 135.200 C 358.259 134.540,357.889 134.000,357.779 134.000 C 357.669 134.000,357.859 134.540,358.200 135.200 M35.000 140.800 C 34.659 141.460,34.469 142.000,34.579 142.000 C 34.689 142.000,35.059 141.460,35.400 140.800 C 35.741 140.140,35.931 139.600,35.821 139.600 C 35.711 139.600,35.341 140.140,35.000 140.800 M33.400 143.600 C 33.059 144.260,32.869 144.800,32.979 144.800 C 33.089 144.800,33.459 144.260,33.800 143.600 C 34.141 142.940,34.331 142.400,34.221 142.400 C 34.111 142.400,33.741 142.940,33.400 143.600 M363.800 144.800 C 364.141 145.460,364.511 146.000,364.621 146.000 C 364.731 146.000,364.541 145.460,364.200 144.800 C 363.859 144.140,363.489 143.600,363.379 143.600 C 363.269 143.600,363.459 144.140,363.800 144.800 M31.800 146.400 C 31.459 147.060,31.269 147.600,31.379 147.600 C 31.489 147.600,31.859 147.060,32.200 146.400 C 32.541 145.740,32.731 145.200,32.621 145.200 C 32.511 145.200,32.141 145.740,31.800 146.400 M364.815 146.600 C 364.817 146.820,365.186 147.450,365.636 148.000 C 366.179 148.664,366.315 148.731,366.040 148.200 C 365.366 146.895,364.812 146.172,364.815 146.600 M30.200 149.200 C 29.859 149.860,29.669 150.400,29.779 150.400 C 29.889 150.400,30.259 149.860,30.600 149.200 C 30.941 148.540,31.131 148.000,31.021 148.000 C 30.911 148.000,30.541 148.540,30.200 149.200 M367.000 150.400 C 367.341 151.060,367.711 151.600,367.821 151.600 C 367.931 151.600,367.741 151.060,367.400 150.400 C 367.059 149.740,366.689 149.200,366.579 149.200 C 366.469 149.200,366.659 149.740,367.000 150.400 M28.600 152.000 C 28.259 152.660,28.069 153.200,28.179 153.200 C 28.289 153.200,28.659 152.660,29.000 152.000 C 29.341 151.340,29.531 150.800,29.421 150.800 C 29.311 150.800,28.941 151.340,28.600 152.000 M368.600 153.200 C 368.941 153.860,369.311 154.400,369.421 154.400 C 369.531 154.400,369.341 153.860,369.000 153.200 C 368.659 152.540,368.289 152.000,368.179 152.000 C 368.069 152.000,368.259 152.540,368.600 153.200 M26.253 156.100 L 25.533 157.400 26.358 156.400 C 27.089 155.513,27.414 154.800,27.086 154.800 C 27.024 154.800,26.649 155.385,26.253 156.100 M370.200 156.000 C 370.541 156.660,370.911 157.200,371.021 157.200 C 371.131 157.200,370.941 156.660,370.600 156.000 C 370.259 155.340,369.889 154.800,369.779 154.800 C 369.669 154.800,369.859 155.340,370.200 156.000 M24.653 158.900 L 23.933 160.200 24.758 159.200 C 25.489 158.313,25.814 157.600,25.486 157.600 C 25.424 157.600,25.049 158.185,24.653 158.900 M23.000 161.600 C 22.659 162.260,22.469 162.800,22.579 162.800 C 22.689 162.800,23.059 162.260,23.400 161.600 C 23.741 160.940,23.931 160.400,23.821 160.400 C 23.711 160.400,23.341 160.940,23.000 161.600 M373.400 161.600 C 373.741 162.260,374.111 162.800,374.221 162.800 C 374.331 162.800,374.141 162.260,373.800 161.600 C 373.459 160.940,373.089 160.400,372.979 160.400 C 372.869 160.400,373.059 160.940,373.400 161.600 M21.400 164.400 C 21.059 165.060,20.869 165.600,20.979 165.600 C 21.089 165.600,21.459 165.060,21.800 164.400 C 22.141 163.740,22.331 163.200,22.221 163.200 C 22.111 163.200,21.741 163.740,21.400 164.400 M375.215 164.600 C 375.217 164.820,375.586 165.450,376.036 166.000 C 376.579 166.664,376.715 166.731,376.440 166.200 C 375.766 164.895,375.212 164.172,375.215 164.600 M19.800 167.200 C 19.459 167.860,19.269 168.400,19.379 168.400 C 19.489 168.400,19.859 167.860,20.200 167.200 C 20.541 166.540,20.731 166.000,20.621 166.000 C 20.511 166.000,20.141 166.540,19.800 167.200 M376.815 167.400 C 376.817 167.620,377.186 168.250,377.636 168.800 C 378.179 169.464,378.315 169.531,378.040 169.000 C 377.366 167.695,376.812 166.972,376.815 167.400 M379.000 171.200 C 379.341 171.860,379.711 172.400,379.821 172.400 C 379.931 172.400,379.741 171.860,379.400 171.200 C 379.059 170.540,378.689 170.000,378.579 170.000 C 378.469 170.000,378.659 170.540,379.000 171.200 M15.853 174.100 L 15.133 175.400 15.958 174.400 C 16.689 173.513,17.014 172.800,16.686 172.800 C 16.624 172.800,16.249 173.385,15.853 174.100 M380.600 174.000 C 380.941 174.660,381.311 175.200,381.421 175.200 C 381.531 175.200,381.341 174.660,381.000 174.000 C 380.659 173.340,380.289 172.800,380.179 172.800 C 380.069 172.800,380.259 173.340,380.600 174.000 M14.200 176.800 C 13.859 177.460,13.669 178.000,13.779 178.000 C 13.889 178.000,14.259 177.460,14.600 176.800 C 14.941 176.140,15.131 175.600,15.021 175.600 C 14.911 175.600,14.541 176.140,14.200 176.800 M382.200 176.800 C 382.541 177.460,382.911 178.000,383.021 178.000 C 383.131 178.000,382.941 177.460,382.600 176.800 C 382.259 176.140,381.889 175.600,381.779 175.600 C 381.669 175.600,381.859 176.140,382.200 176.800 M188.800 200.000 C 188.800 215.571,188.821 216.000,189.576 216.000 C 190.003 216.000,190.454 215.837,190.577 215.637 C 190.700 215.438,190.441 215.369,190.001 215.484 C 189.210 215.691,189.200 215.500,189.200 200.000 C 189.200 184.500,189.210 184.309,190.001 184.516 C 190.441 184.631,190.700 184.562,190.577 184.363 C 190.454 184.163,190.003 184.000,189.576 184.000 C 188.821 184.000,188.800 184.429,188.800 200.000 M385.612 184.400 C 385.612 184.730,385.787 185.270,386.000 185.600 C 386.345 186.133,386.388 186.133,386.388 185.600 C 386.388 185.270,386.213 184.730,386.000 184.400 C 385.655 183.867,385.612 183.867,385.612 184.400 M9.829 188.229 C 9.681 188.815,9.638 189.372,9.732 189.466 C 9.827 189.560,10.024 189.158,10.171 188.571 C 10.319 187.985,10.362 187.428,10.268 187.334 C 10.173 187.240,9.976 187.642,9.829 188.229 M195.600 187.620 C 196.987 188.561,197.778 188.835,196.800 188.036 C 196.250 187.586,195.620 187.217,195.400 187.215 C 195.180 187.213,195.270 187.396,195.600 187.620 M198.000 188.979 C 198.000 189.089,198.540 189.459,199.200 189.800 C 199.860 190.141,200.400 190.331,200.400 190.221 C 200.400 190.111,199.860 189.741,199.200 189.400 C 198.540 189.059,198.000 188.869,198.000 188.979 M387.287 190.800 C 387.283 191.350,387.424 192.250,387.600 192.800 C 388.031 194.144,388.031 192.692,387.600 191.000 C 387.326 189.922,387.294 189.902,387.287 190.800 M9.054 193.056 C 8.725 195.461,8.767 202.557,9.123 204.555 C 9.275 205.410,9.400 202.755,9.400 198.655 C 9.400 190.354,9.408 190.478,9.054 193.056 M203.600 192.179 C 203.600 192.289,204.140 192.659,204.800 193.000 C 205.460 193.341,206.000 193.531,206.000 193.421 C 206.000 193.311,205.460 192.941,204.800 192.600 C 204.140 192.259,203.600 192.069,203.600 192.179 M210.800 196.420 C 212.187 197.361,212.978 197.635,212.000 196.836 C 211.450 196.386,210.820 196.017,210.600 196.015 C 210.380 196.013,210.470 196.196,210.800 196.420 M213.200 197.779 C 213.200 197.889,213.740 198.259,214.400 198.600 C 215.060 198.941,215.600 199.131,215.600 199.021 C 215.600 198.911,215.060 198.541,214.400 198.200 C 213.740 197.859,213.200 197.669,213.200 197.779 M214.300 201.429 C 212.805 202.240,212.896 202.578,214.400 201.800 C 215.060 201.459,215.600 201.094,215.600 200.990 C 215.600 200.732,215.557 200.747,214.300 201.429 M211.400 203.200 C 210.740 203.637,210.380 203.992,210.600 203.988 C 211.001 203.982,213.176 202.423,212.800 202.412 C 212.690 202.408,212.060 202.763,211.400 203.200 M387.422 206.222 C 387.272 207.025,387.228 207.762,387.326 207.860 C 387.424 207.957,387.627 207.381,387.778 206.578 C 387.928 205.775,387.972 205.038,387.874 204.940 C 387.776 204.843,387.573 205.419,387.422 206.222 M204.700 207.029 C 203.205 207.840,203.296 208.178,204.800 207.400 C 205.460 207.059,206.000 206.694,206.000 206.590 C 206.000 206.332,205.957 206.347,204.700 207.029 M9.656 208.000 C 9.656 208.330,9.811 208.960,10.000 209.400 C 10.217 209.904,10.344 209.978,10.344 209.600 C 10.344 209.270,10.189 208.640,10.000 208.200 C 9.783 207.696,9.656 207.622,9.656 208.000 M199.100 210.229 C 197.605 211.040,197.696 211.378,199.200 210.600 C 199.860 210.259,200.400 209.894,200.400 209.790 C 200.400 209.532,200.357 209.547,199.100 210.229 M196.200 212.000 C 195.540 212.437,195.180 212.792,195.400 212.788 C 195.801 212.782,197.976 211.223,197.600 211.212 C 197.490 211.208,196.860 211.563,196.200 212.000 M14.200 220.400 C 14.541 221.060,14.911 221.600,15.021 221.600 C 15.131 221.600,14.941 221.060,14.600 220.400 C 14.259 219.740,13.889 219.200,13.779 219.200 C 13.669 219.200,13.859 219.740,14.200 220.400 M382.200 221.200 C 381.859 221.860,381.669 222.400,381.779 222.400 C 381.889 222.400,382.259 221.860,382.600 221.200 C 382.941 220.540,383.131 220.000,383.021 220.000 C 382.911 220.000,382.541 220.540,382.200 221.200 M15.800 223.200 C 16.141 223.860,16.511 224.400,16.621 224.400 C 16.731 224.400,16.541 223.860,16.200 223.200 C 15.859 222.540,15.489 222.000,15.379 222.000 C 15.269 222.000,15.459 222.540,15.800 223.200 M380.600 224.000 C 380.259 224.660,380.069 225.200,380.179 225.200 C 380.289 225.200,380.659 224.660,381.000 224.000 C 381.341 223.340,381.531 222.800,381.421 222.800 C 381.311 222.800,380.941 223.340,380.600 224.000 M379.014 226.635 C 378.641 227.204,378.405 227.738,378.489 227.822 C 378.573 227.907,378.958 227.441,379.344 226.788 C 380.206 225.328,379.948 225.209,379.014 226.635 M377.414 229.435 C 377.041 230.004,376.805 230.538,376.889 230.622 C 376.973 230.707,377.358 230.241,377.744 229.588 C 378.606 228.128,378.348 228.009,377.414 229.435 M21.400 232.800 C 21.741 233.460,22.111 234.000,22.221 234.000 C 22.331 234.000,22.141 233.460,21.800 232.800 C 21.459 232.140,21.089 231.600,20.979 231.600 C 20.869 231.600,21.059 232.140,21.400 232.800 M375.000 233.600 C 374.659 234.260,374.469 234.800,374.579 234.800 C 374.689 234.800,375.059 234.260,375.400 233.600 C 375.741 232.940,375.931 232.400,375.821 232.400 C 375.711 232.400,375.341 232.940,375.000 233.600 M23.000 235.600 C 23.341 236.260,23.711 236.800,23.821 236.800 C 23.931 236.800,23.741 236.260,23.400 235.600 C 23.059 234.940,22.689 234.400,22.579 234.400 C 22.469 234.400,22.659 234.940,23.000 235.600 M373.400 236.400 C 373.059 237.060,372.869 237.600,372.979 237.600 C 373.089 237.600,373.459 237.060,373.800 236.400 C 374.141 235.740,374.331 235.200,374.221 235.200 C 374.111 235.200,373.741 235.740,373.400 236.400 M24.600 238.400 C 24.941 239.060,25.311 239.600,25.421 239.600 C 25.531 239.600,25.341 239.060,25.000 238.400 C 24.659 237.740,24.289 237.200,24.179 237.200 C 24.069 237.200,24.259 237.740,24.600 238.400 M371.800 239.200 C 371.459 239.860,371.269 240.400,371.379 240.400 C 371.489 240.400,371.859 239.860,372.200 239.200 C 372.541 238.540,372.731 238.000,372.621 238.000 C 372.511 238.000,372.141 238.540,371.800 239.200 M26.200 241.200 C 26.541 241.860,26.911 242.400,27.021 242.400 C 27.131 242.400,26.941 241.860,26.600 241.200 C 26.259 240.540,25.889 240.000,25.779 240.000 C 25.669 240.000,25.859 240.540,26.200 241.200 M370.200 242.000 C 369.859 242.660,369.669 243.200,369.779 243.200 C 369.889 243.200,370.259 242.660,370.600 242.000 C 370.941 241.340,371.131 240.800,371.021 240.800 C 370.911 240.800,370.541 241.340,370.200 242.000 M27.800 244.000 C 28.141 244.660,28.511 245.200,28.621 245.200 C 28.731 245.200,28.541 244.660,28.200 244.000 C 27.859 243.340,27.489 242.800,27.379 242.800 C 27.269 242.800,27.459 243.340,27.800 244.000 M368.600 244.800 C 368.259 245.460,368.069 246.000,368.179 246.000 C 368.289 246.000,368.659 245.460,369.000 244.800 C 369.341 244.140,369.531 243.600,369.421 243.600 C 369.311 243.600,368.941 244.140,368.600 244.800 M29.160 246.200 C 29.834 247.505,30.388 248.228,30.385 247.800 C 30.383 247.580,30.014 246.950,29.564 246.400 C 29.021 245.736,28.885 245.669,29.160 246.200 M30.760 249.000 C 31.434 250.305,31.988 251.028,31.985 250.600 C 31.983 250.380,31.614 249.750,31.164 249.200 C 30.621 248.536,30.485 248.469,30.760 249.000 M363.000 254.400 C 362.659 255.060,362.469 255.600,362.579 255.600 C 362.689 255.600,363.059 255.060,363.400 254.400 C 363.741 253.740,363.931 253.200,363.821 253.200 C 363.711 253.200,363.341 253.740,363.000 254.400 M361.400 257.200 C 361.059 257.860,360.869 258.400,360.979 258.400 C 361.089 258.400,361.459 257.860,361.800 257.200 C 362.141 256.540,362.331 256.000,362.221 256.000 C 362.111 256.000,361.741 256.540,361.400 257.200 M36.600 259.200 C 36.941 259.860,37.311 260.400,37.421 260.400 C 37.531 260.400,37.341 259.860,37.000 259.200 C 36.659 258.540,36.289 258.000,36.179 258.000 C 36.069 258.000,36.259 258.540,36.600 259.200 M359.800 260.000 C 359.459 260.660,359.269 261.200,359.379 261.200 C 359.489 261.200,359.859 260.660,360.200 260.000 C 360.541 259.340,360.731 258.800,360.621 258.800 C 360.511 258.800,360.141 259.340,359.800 260.000 M38.200 262.000 C 38.541 262.660,38.911 263.200,39.021 263.200 C 39.131 263.200,38.941 262.660,38.600 262.000 C 38.259 261.340,37.889 260.800,37.779 260.800 C 37.669 260.800,37.859 261.340,38.200 262.000 M358.214 262.635 C 357.841 263.204,357.605 263.738,357.689 263.822 C 357.773 263.907,358.158 263.441,358.544 262.788 C 359.406 261.328,359.148 261.209,358.214 262.635 M39.800 264.800 C 40.141 265.460,40.511 266.000,40.621 266.000 C 40.731 266.000,40.541 265.460,40.200 264.800 C 39.859 264.140,39.489 263.600,39.379 263.600 C 39.269 263.600,39.459 264.140,39.800 264.800 M41.400 267.600 C 41.741 268.260,42.111 268.800,42.221 268.800 C 42.331 268.800,42.141 268.260,41.800 267.600 C 41.459 266.940,41.089 266.400,40.979 266.400 C 40.869 266.400,41.059 266.940,41.400 267.600 M354.200 269.600 C 353.859 270.260,353.669 270.800,353.779 270.800 C 353.889 270.800,354.259 270.260,354.600 269.600 C 354.941 268.940,355.131 268.400,355.021 268.400 C 354.911 268.400,354.541 268.940,354.200 269.600 M43.000 270.400 C 43.341 271.060,43.711 271.600,43.821 271.600 C 43.931 271.600,43.741 271.060,43.400 270.400 C 43.059 269.740,42.689 269.200,42.579 269.200 C 42.469 269.200,42.659 269.740,43.000 270.400 M352.600 272.400 C 352.259 273.060,352.069 273.600,352.179 273.600 C 352.289 273.600,352.659 273.060,353.000 272.400 C 353.341 271.740,353.531 271.200,353.421 271.200 C 353.311 271.200,352.941 271.740,352.600 272.400 M44.360 272.600 C 45.034 273.905,45.588 274.628,45.585 274.200 C 45.583 273.980,45.214 273.350,44.764 272.800 C 44.221 272.136,44.085 272.069,44.360 272.600 M351.000 275.200 C 350.659 275.860,350.469 276.400,350.579 276.400 C 350.689 276.400,351.059 275.860,351.400 275.200 C 351.741 274.540,351.931 274.000,351.821 274.000 C 351.711 274.000,351.341 274.540,351.000 275.200 M349.414 277.835 C 349.041 278.404,348.805 278.938,348.889 279.022 C 348.973 279.107,349.358 278.641,349.744 277.988 C 350.606 276.528,350.348 276.409,349.414 277.835 M48.600 280.000 C 48.941 280.660,49.311 281.200,49.421 281.200 C 49.531 281.200,49.341 280.660,49.000 280.000 C 48.659 279.340,48.289 278.800,48.179 278.800 C 48.069 278.800,48.259 279.340,48.600 280.000 M347.814 280.635 C 347.441 281.204,347.205 281.738,347.289 281.822 C 347.373 281.907,347.758 281.441,348.144 280.788 C 349.006 279.328,348.748 279.209,347.814 280.635 M50.200 282.800 C 50.541 283.460,50.911 284.000,51.021 284.000 C 51.131 284.000,50.941 283.460,50.600 282.800 C 50.259 282.140,49.889 281.600,49.779 281.600 C 49.669 281.600,49.859 282.140,50.200 282.800 M345.400 284.800 C 345.059 285.460,344.869 286.000,344.979 286.000 C 345.089 286.000,345.459 285.460,345.800 284.800 C 346.141 284.140,346.331 283.600,346.221 283.600 C 346.111 283.600,345.741 284.140,345.400 284.800 M51.800 285.600 C 52.141 286.260,52.511 286.800,52.621 286.800 C 52.731 286.800,52.541 286.260,52.200 285.600 C 51.859 284.940,51.489 284.400,51.379 284.400 C 51.269 284.400,51.459 284.940,51.800 285.600 M343.800 287.600 C 343.459 288.260,343.269 288.800,343.379 288.800 C 343.489 288.800,343.859 288.260,344.200 287.600 C 344.541 286.940,344.731 286.400,344.621 286.400 C 344.511 286.400,344.141 286.940,343.800 287.600 M53.400 288.400 C 53.741 289.060,54.111 289.600,54.221 289.600 C 54.331 289.600,54.141 289.060,53.800 288.400 C 53.459 287.740,53.089 287.200,52.979 287.200 C 52.869 287.200,53.059 287.740,53.400 288.400 M342.200 290.400 C 341.859 291.060,341.669 291.600,341.779 291.600 C 341.889 291.600,342.259 291.060,342.600 290.400 C 342.941 289.740,343.131 289.200,343.021 289.200 C 342.911 289.200,342.541 289.740,342.200 290.400 M55.000 291.200 C 55.341 291.860,55.711 292.400,55.821 292.400 C 55.931 292.400,55.741 291.860,55.400 291.200 C 55.059 290.540,54.689 290.000,54.579 290.000 C 54.469 290.000,54.659 290.540,55.000 291.200 M340.600 293.200 C 340.259 293.860,340.069 294.400,340.179 294.400 C 340.289 294.400,340.659 293.860,341.000 293.200 C 341.341 292.540,341.531 292.000,341.421 292.000 C 341.311 292.000,340.941 292.540,340.600 293.200 M56.360 293.400 C 57.034 294.705,57.588 295.428,57.585 295.000 C 57.583 294.780,57.214 294.150,56.764 293.600 C 56.221 292.936,56.085 292.869,56.360 293.400 M339.000 296.000 C 338.659 296.660,338.469 297.200,338.579 297.200 C 338.689 297.200,339.059 296.660,339.400 296.000 C 339.741 295.340,339.931 294.800,339.821 294.800 C 339.711 294.800,339.341 295.340,339.000 296.000 M58.200 296.800 C 58.541 297.460,58.911 298.000,59.021 298.000 C 59.131 298.000,58.941 297.460,58.600 296.800 C 58.259 296.140,57.889 295.600,57.779 295.600 C 57.669 295.600,57.859 296.140,58.200 296.800 M333.400 305.600 C 333.059 306.260,332.869 306.800,332.979 306.800 C 333.089 306.800,333.459 306.260,333.800 305.600 C 334.141 304.940,334.331 304.400,334.221 304.400 C 334.111 304.400,333.741 304.940,333.400 305.600 M63.800 306.400 C 64.141 307.060,64.511 307.600,64.621 307.600 C 64.731 307.600,64.541 307.060,64.200 306.400 C 63.859 305.740,63.489 305.200,63.379 305.200 C 63.269 305.200,63.459 305.740,63.800 306.400 M331.800 308.400 C 331.459 309.060,331.269 309.600,331.379 309.600 C 331.489 309.600,331.859 309.060,332.200 308.400 C 332.541 307.740,332.731 307.200,332.621 307.200 C 332.511 307.200,332.141 307.740,331.800 308.400 M65.400 309.200 C 65.741 309.860,66.111 310.400,66.221 310.400 C 66.331 310.400,66.141 309.860,65.800 309.200 C 65.459 308.540,65.089 308.000,64.979 308.000 C 64.869 308.000,65.059 308.540,65.400 309.200 M330.200 311.200 C 329.859 311.860,329.669 312.400,329.779 312.400 C 329.889 312.400,330.259 311.860,330.600 311.200 C 330.941 310.540,331.131 310.000,331.021 310.000 C 330.911 310.000,330.541 310.540,330.200 311.200 M67.000 312.000 C 67.341 312.660,67.711 313.200,67.821 313.200 C 67.931 313.200,67.741 312.660,67.400 312.000 C 67.059 311.340,66.689 310.800,66.579 310.800 C 66.469 310.800,66.659 311.340,67.000 312.000 M328.614 313.835 C 328.241 314.404,328.005 314.938,328.089 315.022 C 328.173 315.107,328.558 314.641,328.944 313.988 C 329.806 312.528,329.548 312.409,328.614 313.835 M68.600 314.800 C 68.941 315.460,69.311 316.000,69.421 316.000 C 69.531 316.000,69.341 315.460,69.000 314.800 C 68.659 314.140,68.289 313.600,68.179 313.600 C 68.069 313.600,68.259 314.140,68.600 314.800 M70.200 317.600 C 70.541 318.260,70.911 318.800,71.021 318.800 C 71.131 318.800,70.941 318.260,70.600 317.600 C 70.259 316.940,69.889 316.400,69.779 316.400 C 69.669 316.400,69.859 316.940,70.200 317.600 M71.560 319.800 C 72.234 321.105,72.788 321.828,72.785 321.400 C 72.783 321.180,72.414 320.550,71.964 320.000 C 71.421 319.336,71.285 319.269,71.560 319.800 M324.600 320.800 C 324.259 321.460,324.069 322.000,324.179 322.000 C 324.289 322.000,324.659 321.460,325.000 320.800 C 325.341 320.140,325.531 319.600,325.421 319.600 C 325.311 319.600,324.941 320.140,324.600 320.800 M73.160 322.600 C 73.834 323.905,74.388 324.628,74.385 324.200 C 74.383 323.980,74.014 323.350,73.564 322.800 C 73.021 322.136,72.885 322.069,73.160 322.600 M323.000 323.600 C 322.659 324.260,322.469 324.800,322.579 324.800 C 322.689 324.800,323.059 324.260,323.400 323.600 C 323.741 322.940,323.931 322.400,323.821 322.400 C 323.711 322.400,323.341 322.940,323.000 323.600 M321.400 326.400 C 321.059 327.060,320.869 327.600,320.979 327.600 C 321.089 327.600,321.459 327.060,321.800 326.400 C 322.141 325.740,322.331 325.200,322.221 325.200 C 322.111 325.200,321.741 325.740,321.400 326.400 M75.800 327.200 C 76.141 327.860,76.511 328.400,76.621 328.400 C 76.731 328.400,76.541 327.860,76.200 327.200 C 75.859 326.540,75.489 326.000,75.379 326.000 C 75.269 326.000,75.459 326.540,75.800 327.200 M319.814 329.035 C 319.441 329.604,319.205 330.138,319.289 330.222 C 319.373 330.307,319.758 329.841,320.144 329.188 C 321.006 327.728,320.748 327.609,319.814 329.035 M318.214 331.835 C 317.841 332.404,317.605 332.938,317.689 333.022 C 317.773 333.107,318.158 332.641,318.544 331.988 C 319.406 330.528,319.148 330.409,318.214 331.835 M79.000 332.800 C 79.341 333.460,79.711 334.000,79.821 334.000 C 79.931 334.000,79.741 333.460,79.400 332.800 C 79.059 332.140,78.689 331.600,78.579 331.600 C 78.469 331.600,78.659 332.140,79.000 332.800 M80.600 335.600 C 80.941 336.260,81.311 336.800,81.421 336.800 C 81.531 336.800,81.341 336.260,81.000 335.600 C 80.659 334.940,80.289 334.400,80.179 334.400 C 80.069 334.400,80.259 334.940,80.600 335.600 M315.800 336.000 C 315.459 336.660,315.269 337.200,315.379 337.200 C 315.489 337.200,315.859 336.660,316.200 336.000 C 316.541 335.340,316.731 334.800,316.621 334.800 C 316.511 334.800,316.141 335.340,315.800 336.000 M82.200 338.400 C 82.541 339.060,82.911 339.600,83.021 339.600 C 83.131 339.600,82.941 339.060,82.600 338.400 C 82.259 337.740,81.889 337.200,81.779 337.200 C 81.669 337.200,81.859 337.740,82.200 338.400 M314.200 338.800 C 313.859 339.460,313.669 340.000,313.779 340.000 C 313.889 340.000,314.259 339.460,314.600 338.800 C 314.941 338.140,315.131 337.600,315.021 337.600 C 314.911 337.600,314.541 338.140,314.200 338.800 M83.560 340.600 C 84.234 341.905,84.788 342.628,84.785 342.200 C 84.783 341.980,84.414 341.350,83.964 340.800 C 83.421 340.136,83.285 340.069,83.560 340.600 M312.600 341.600 C 312.259 342.260,312.069 342.800,312.179 342.800 C 312.289 342.800,312.659 342.260,313.000 341.600 C 313.341 340.940,313.531 340.400,313.421 340.400 C 313.311 340.400,312.941 340.940,312.600 341.600 M85.400 344.000 C 85.741 344.660,86.111 345.200,86.221 345.200 C 86.331 345.200,86.141 344.660,85.800 344.000 C 85.459 343.340,85.089 342.800,84.979 342.800 C 84.869 342.800,85.059 343.340,85.400 344.000 M311.000 344.400 C 310.659 345.060,310.469 345.600,310.579 345.600 C 310.689 345.600,311.059 345.060,311.400 344.400 C 311.741 343.740,311.931 343.200,311.821 343.200 C 311.711 343.200,311.341 343.740,311.000 344.400 M309.400 347.200 C 309.059 347.860,308.869 348.400,308.979 348.400 C 309.089 348.400,309.459 347.860,309.800 347.200 C 310.141 346.540,310.331 346.000,310.221 346.000 C 310.111 346.000,309.741 346.540,309.400 347.200 M307.375 350.268 C 306.759 351.076,306.459 351.611,306.709 351.456 C 307.221 351.140,308.953 348.800,308.675 348.800 C 308.576 348.800,307.991 349.461,307.375 350.268 M89.775 350.932 C 90.391 351.739,90.976 352.400,91.075 352.400 C 91.353 352.400,89.621 350.060,89.109 349.744 C 88.859 349.589,89.159 350.124,89.775 350.932 M301.828 356.555 C 297.419 361.037,297.657 361.063,302.330 356.611 C 304.388 354.650,306.870 351.821,306.327 352.055 C 306.257 352.085,304.233 354.110,301.828 356.555 M93.027 354.816 C 95.513 357.609,98.400 360.222,98.400 359.680 C 98.400 359.453,98.209 359.203,97.976 359.125 C 97.743 359.048,96.090 357.548,94.303 355.792 C 92.132 353.659,91.709 353.335,93.027 354.816 M99.694 360.890 C 100.882 361.900,103.200 363.347,103.200 363.079 C 103.200 362.988,102.165 362.249,100.900 361.437 C 99.635 360.625,99.092 360.379,99.694 360.890 M293.500 363.029 C 292.005 363.840,292.096 364.178,293.600 363.400 C 294.260 363.059,294.800 362.694,294.800 362.590 C 294.800 362.332,294.757 362.347,293.500 363.029 M103.600 363.379 C 103.600 363.489,104.140 363.859,104.800 364.200 C 105.460 364.541,106.000 364.731,106.000 364.621 C 106.000 364.511,105.460 364.141,104.800 363.800 C 104.140 363.459,103.600 363.269,103.600 363.379 M108.400 366.000 C 108.730 366.213,109.270 366.388,109.600 366.388 C 110.133 366.388,110.133 366.345,109.600 366.000 C 109.270 365.787,108.730 365.612,108.400 365.612 C 107.867 365.612,107.867 365.655,108.400 366.000 M113.400 367.600 C 114.596 368.114,115.595 368.114,114.800 367.600 C 114.470 367.387,113.840 367.222,113.400 367.234 L 112.600 367.256 113.400 367.600 M282.200 367.600 C 281.696 367.817,281.622 367.944,282.000 367.944 C 282.330 367.944,282.960 367.789,283.400 367.600 C 283.904 367.383,283.978 367.256,283.600 367.256 C 283.270 367.256,282.640 367.411,282.200 367.600 M117.000 368.400 C 117.440 368.589,118.160 368.738,118.600 368.732 C 119.243 368.723,119.204 368.657,118.400 368.400 C 117.032 367.962,115.981 367.962,117.000 368.400 M278.600 368.400 C 277.511 368.677,277.493 368.707,278.400 368.725 C 278.950 368.735,279.760 368.589,280.200 368.400 C 281.186 367.976,280.266 367.976,278.600 368.400 M160.132 369.100 C 181.434 369.157,216.174 369.157,237.332 369.100 C 258.489 369.043,241.060 368.996,198.600 368.996 C 156.140 368.996,138.829 369.043,160.132 369.100 " stroke="none" fill="#fc8c8c" fill-rule="evenodd"></path><path id="path4" d="" stroke="none" fill="#fc8484" fill-rule="evenodd"></path></g></svg>